PathFileType	4	(X/Y/Z)	temp_trc_file_rotated.trc
DataRate	CameraRate	NumFrames	NumMarkers	Units	OrigDataRate	OrigDataStartFrame	OrigNumFrames
250.000000	250.000000	4	40	mm	250.000000	503	806
Frame#	Time	C7			T10			LTH3			RPSI			RTH3			LTB2			LCAL			RMT2			RTB2			RCAL			RMT1			LMT2			LTH2			RTH1			LMT1			LTB1			RTH2			LTB3			LTH1			RTB1			RTB3			CLAV			LASI			STRN			RASI			LPSI			RLFC			RMFC			LLFC			LMFC			RMMAL			RLMAL			LMMAL			LLMAL			LAJC			LHJC			LKJC			RAJC			RHJC			RKJC			
		X1	Y1	Z1	X2	Y2	Z2	X3	Y3	Z3	X4	Y4	Z4	X5	Y5	Z5	X6	Y6	Z6	X7	Y7	Z7	X8	Y8	Z8	X9	Y9	Z9	X10	Y10	Z10	X11	Y11	Z11	X12	Y12	Z12	X13	Y13	Z13	X14	Y14	Z14	X15	Y15	Z15	X16	Y16	Z16	X17	Y17	Z17	X18	Y18	Z18	X19	Y19	Z19	X20	Y20	Z20	X21	Y21	Z21	X22	Y22	Z22	X23	Y23	Z23	X24	Y24	Z24	X25	Y25	Z25	X26	Y26	Z26	X27	Y27	Z27	X28	Y28	Z28	X29	Y29	Z29	X30	Y30	Z30	X31	Y31	Z31	X32	Y32	Z32	X33	Y33	Z33	X34	Y34	Z34	X35	Y35	Z35	X36	Y36	Z36	X37	Y37	Z37	X38	Y38	Z38	X39	Y39	Z39	X40	Y40	Z40	

504	2.012	3538.87939453125	-665.2630615233459	-1547.538452148438	314.4128112792969	677.45703125	1299.751708984375	76.98703002929688	514.0698852539062	673.1878662109375	297.975341796875	723.4743041992188	1098.0859375	230.8761596679688	805.2861328125	689.5355224609375	51.60178756713867	518.6395874023438	367.2920837402344	136.7071228027344	614.171142578125	106.8739776611328	264.2364807128906	745.0033569335938	54.38404083251953	352.0782165527344	773.947021484375	332.462646484375	486.7681274414062	687.24951171875	72.78394317626953	244.4474639892578	665.2158203125	59.87994384765625	-67.50096130371094	522.047119140625	60.97676467895508	20.25715065002441	531.2479858398438	808.0146484375	202.1795654296875	834.3392333984375	889.1574096679688	-103.9832992553711	613.027587890625	69.58261108398438	-25.40108871459961	600.63330078125	455.1470947265625	129.7492370605469	741.1290893554688	785.2066650390625	12.92271709442139	610.2716064453125	260.8584899902344	167.1440887451172	496.2492065429688	849.5940551757812	295.176513671875	678.5200805664062	421.5721740722656	347.5589599609375	672.5802001953125	235.0991668701172	124.3989639282227	675.2255249023438	1469.671508789062	126.2687683105469	573.7050170898438	1043.510498046875	82.87673950195312	675.75390625	1292.157836914062	123.4083251953125	770.5149536132812	1036.559936523438	300.4854125976562	612.7455444335938	1097.654663085938	271.2715759277344	751.4035034179688	507.3508911132812	268.15234375	647.2326049804688	509.1864318847656	-17.17205238342285	529.5625	551.0794067382812	-33.13430786132812	630.4918823242188	562.99560546875	381.3436584472656	647.349365234375	126.0796813964844	395.9259643554688	735.1190795898438	115.7842712402344	12.330979347229	627.4417724609375	158.5935363769531	62.36467742919922	548.6989135742188	141.3945770263672	37.34782791137695	588.0703125	149.9940643310547	198.9373474121094	568.5390014648438	950.9490966796875	-25.15317916870117	580.0272216796875	557.0375366210938	388.6347961425781	691.2342529296875	120.9319763183594	199.0160217285156	756.5791625976562	943.3855590820312	269.7119445800781	699.3180541992188	508.2686767578125	
505	2.016	3538.87939453125	-665.2630615233459	-1547.538452148438	308.1667175292969	677.1818237304688	1298.798828125	71.32711029052734	514.66943359375	671.9102172851562	291.9664916992188	723.4945678710938	1097.153198242188	227.1865997314453	805.6015625	688.9254150390625	40.66692352294922	518.7381591796875	364.5919799804688	117.3678741455078	614.4378662109375	101.7741775512695	264.3433532714844	745.092529296875	54.42063140869141	350.5427551269531	774.14013671875	332.5234069824219	486.5841674804688	687.33837890625	73.32769775390625	244.2275848388672	665.21435546875	59.77597427368164	-87.97357177734375	521.7764892578125	61.61661529541016	14.30797863006592	530.9843139648438	806.7060546875	197.268310546875	834.7354736328125	888.3405151367188	-124.2427520751953	612.7222900390625	71.50973510742188	-33.9599609375	600.791259765625	454.6042175292969	125.6782073974609	740.749755859375	784.09130859375	-1.599869966506958	610.1820068359375	259.2890625	161.7126922607422	496.5593872070312	848.2042236328125	293.1756896972656	678.7861938476562	421.4975891113281	346.6561279296875	672.6262817382812	235.2523498535156	118.2113342285156	674.9338989257812	1468.7041015625	120.1374130249023	573.6864624023438	1042.3330078125	76.59379577636719	675.6434326171875	1290.987548828125	117.6784362792969	770.5774536132812	1035.248779296875	294.4240112304688	612.5440673828125	1096.599243164062	268.7745056152344	751.64599609375	507.0043334960938	266.2421264648438	647.4613647460938	508.9559020996094	-23.08724403381348	530.2020263671875	549.8937377929688	-39.6098518371582	630.9851684570312	562.275146484375	381.07470703125	647.275390625	126.4985733032227	395.6546325683594	735.0411987304688	116.1670532226562	-5.315517425537109	627.1232299804688	157.0160217285156	44.40707397460938	548.4959716796875	138.4412536621094	19.54577827453613	587.8096313476562	147.7286376953125	192.9862213134766	568.4100341796875	949.8973388671875	-31.34854888916016	580.5936279296875	556.0844116210938	388.3646850585938	691.1583251953125	121.3328170776367	193.3399810791016	756.4434814453125	942.1762084960938	267.5083312988281	699.5537109375	507.9801025390625	
506	2.02	3538.87939453125	-665.2630615233459	-1547.538452148438	302.0552978515625	676.8333129882812	1297.7109375	66.30064392089844	515.2122192382812	670.342041015625	285.9073181152344	723.0480346679688	1096.110961914062	223.3313751220703	805.798095703125	688.3211669921875	29.79669570922852	518.9154663085938	361.9096069335938	98.19786071777344	614.7774658203125	97.01036071777344	264.2543640136719	745.1304931640625	54.27447128295898	349.0149841308594	774.2206420898438	332.6386108398438	486.4920654296875	687.4938354492188	74.01554870605469	244.080810546875	665.343017578125	59.65562057495117	-107.5478668212891	521.4854736328125	62.44297409057617	8.549887657165527	530.824951171875	805.4159545898438	192.1670532226562	834.7901000976562	887.5811157226562	-144.1454925537109	612.33349609375	73.58975982666016	-42.39024353027344	600.8464965820312	454.074951171875	121.3561096191406	740.6436767578125	782.9047241210938	-16.12620544433594	609.9114990234375	257.8764953613281	156.0674285888672	496.8212585449219	846.7255249023438	291.1824951171875	678.9398193359375	421.4773864746094	345.8151550292969	672.586669921875	235.3039703369141	111.5273132324219	674.6910400390625	1467.37939453125	113.8190612792969	573.6973266601562	1040.99072265625	70.3677978515625	675.5122680664062	1289.815063476562	111.7087097167969	770.57373046875	1033.8984375	288.2310180664062	612.4217529296875	1095.49462890625	266.0971069335938	751.9949951171875	506.6483154296875	263.7897033691406	647.8040771484375	508.5465393066406	-27.84348487854004	530.8402099609375	548.1431884765625	-44.83102798461914	631.5053100585938	560.8508911132812	380.8389587402344	647.1331176757812	126.919319152832	395.4139709472656	734.897216796875	116.5660705566406	-23.06816291809082	626.5952758789062	155.6748046875	26.40948867797852	548.144287109375	135.7497711181641	1.670662999153137	587.3698120117188	145.7122955322266	186.8509521484375	568.28076171875	948.6773071289062	-36.33725738525391	581.1727294921875	554.4970703125	388.12646484375	691.0151977539062	121.7426910400391	187.479736328125	756.3124389648438	940.9318237304688	264.9434204101562	699.8995361328125	507.5974426269531	
507	2.024	3538.87939453125	-665.2630615233459	-1547.538452148438	295.8262939453125	676.6285400390625	1296.646484375	61.19031143188477	515.8375244140625	668.8074340820312	279.9405212402344	722.9692993164062	1095.01611328125	219.3558654785156	805.656494140625	687.7290649414062	18.85415267944336	519.001953125	359.4771118164062	79.18740844726562	614.603271484375	92.36251831054688	264.1405029296875	745.1618041992188	54.14461135864258	346.9627075195312	774.115478515625	332.6748657226562	486.2272644042969	687.5343627929688	74.60424041748047	243.8658905029297	665.4088134765625	59.53083419799805	-127.8806610107422	521.2466430664062	63.72923278808594	2.854550123214722	530.6376953125	803.8187866210938	186.9114685058594	834.8831176757812	886.8036499023438	-164.0947418212891	612.0778198242188	75.97262573242188	-50.72105026245117	601.0860595703125	453.4355163574219	117.0603942871094	740.6913452148438	781.8627319335938	-30.28153991699219	610.0054931640625	256.5247192382812	150.5432739257812	497.1265258789062	845.24853515625	288.664794921875	678.90771484375	421.3783264160156	344.5607604980469	672.6393432617188	235.4558715820312	105.1132202148438	674.358154296875	1466.296997070312	107.6197204589844	573.4060668945312	1039.81884765625	64.072998046875	675.3790893554688	1288.46142578125	105.7721481323242	770.2827758789062	1032.743041992188	282.130859375	611.9248657226562	1094.307495117188	263.3733520507812	751.7314453125	506.4465942382812	261.1865539550781	647.5403442382812	508.470947265625	-32.78422546386719	531.5591430664062	546.4095458984375	-50.2807502746582	632.087646484375	559.5025024414062	380.3188781738281	647.1904907226562	127.2938537597656	394.8311767578125	734.9765625	117.0391082763672	-40.23970794677734	626.5457763671875	154.6459655761719	8.703701972961426	548.1246948242188	133.3318176269531	-15.7680025100708	587.3352661132812	143.9888916015625	180.7709350585938	567.95751953125	947.5491333007812	-41.53248977661133	581.8234252929688	552.9560546875	387.5750122070312	691.0835571289062	122.1664810180664	181.4544677734375	755.9869995117188	939.7540283203125	262.2799377441406	699.6359252929688	507.4587707519531	
